# xmcd CD database file
#
# Track frame offsets:
#	150
#	10987
#	29794
#	50850
#	63141
#	82344
#	92855
#	118110
#	130351
#	145453
#
# Disc length: 2468 seconds
#
# Revision: 3
# Processed by: cddbd v1.5.2PL0 Copyright (c) Steve Scherf et al.
# Submitted via: CDex 1.98
#
DISCID=9b09a20a
DTITLE=Stevie Ray Vaughan - In Step
DYEAR=2014
DGENRE=Blues
TTITLE0=The House is Rockin'
TTITLE1=Crossfire
TTITLE2=Tightrope
TTITLE3=Let Me Love You Baby
TTITLE4=Leave My Girl Alone
TTITLE5=Travis Walk
TTITLE6=Wall of Denial
TTITLE7=Scratch-N-Sniff
TTITLE8=Love Me Darlin'
TTITLE9=Riviera Paradise
EXTD=YEAR: 2014
EXTT0=
EXTT1=
EXTT2=
EXTT3=
EXTT4=
EXTT5=
EXTT6=
EXTT7=
EXTT8=
EXTT9=
PLAYORDER=
